PathFileType	4	(X/Y/Z)	6_coords_data.trc
DataRate	CameraRate	NumFrames	NumMarkers	Units	OrigDataRate	OrigDataStartFrame	OrigNumFrames
30.0	30.0	6	21	m	30.0	21	60
Frame#	Time	THUMB_TIP	THUMB_IP	THUMB_MCP	THUMB_CMC	INDEX_TIP	INDEX_DIP	INDEX_PIP	INDEX_MCP	MIDDLE_TIP	MIDDLE_DIP	MIDDLE_PIP	MIDDLE_MCP	RING_TIP	RING_DIP	RING_PIP	RING_MCP	PINKY_TIP	PINKY_DIP	PINKY_PIP	PINKY_MCP	WRIST
X1	Y1	Z1	X2	Y2	Z2	X3	Y3	Z3	X4	Y4	Z4	X5	Y5	Z5	X6	Y6	Z6	X7	Y7	Z7	X8	Y8	Z8	X9	Y9	Z9	X10	Y10	Z10	X11	Y11	Z11	X12	Y12	Z12	X13	Y13	Z13	X14	Y14	Z14	X15	Y15	Z15	X16	Y16	Z16	X17	Y17	Z17	X18	Y18	Z18	X19	Y19	Z19	X20	Y20	Z20	X21	Y21	Z21
20	0.6666666666666666	0.0044293198585510256	-0.09929470062255859	1.0506400146484376	-0.020191999435424806	-0.10133300018310547	1.052260009765625	-0.035179298400878904	-0.07884850311279297	1.0546400146484376	-0.02248139953613281	-0.0490614013671875	1.063969970703125	-0.010065199851989746	-0.13366900634765624	0.9623499755859375	-0.01313990020751953	-0.11433799743652344	0.9723629760742187	-0.01615299987792969	-0.09407659912109376	0.9859619750976563	-0.016293500900268553	-0.0576155014038086	1.004489990234375	-0.014982999801635742	-0.07531069946289062	1.0574599609375	-0.007012370109558104	-0.08579519653320312	1.0456800537109374	0.0036202600002288817	-0.09231600189208984	1.0218599853515624	0.00841571044921875	-0.052221698760986326	1.0034400024414063	-0.002120909929275512	-0.07263839721679688	1.0696600341796876	0.006176899909973143	-0.08460379791259766	1.0555	0.021426599502563478	-0.09101399993896485	1.03225	0.029044399261474608	-0.05191419982910156	1.0175	0.06427870178222657	-0.11083599853515624	1.0041300048828126	0.055386798858642575	-0.09556369781494141	1.0162100219726562	0.04688550186157227	-0.08094760131835937	1.025949951171875	0.0357219009399414	-0.05563510131835937	1.03972998046875	-0.010269200325012207	-0.013602800369262695	1.083530029296875
21	0.7	0.004423860073089599	-0.09965740203857422	1.050739990234375	-0.020163999557495118	-0.10149099731445313	1.0523900146484375	-0.0352057991027832	-0.07910890197753906	1.0546700439453125	-0.02262540054321289	-0.049386001586914065	1.0635799560546875	-0.010061100006103515	-0.13417599487304688	0.9628049926757812	-0.013117199897766113	-0.11476599884033203	0.9726129760742187	-0.016149499893188476	-0.09446399688720702	0.986114990234375	-0.016200799942016602	-0.0578936996459961	1.0044500122070312	-0.014918999671936035	-0.07571520233154297	1.0576199951171874	-0.006939650058746338	-0.08604290008544922	1.0460899658203124	0.0036722900867462156	-0.09253489685058594	1.0216799926757814	0.008431739807128906	-0.05247249984741211	1.0031300048828125	-0.002323839902877807	-0.072831298828125	1.069949951171875	0.006193930149078369	-0.08503790283203125	1.05493994140625	0.021473899841308593	-0.09124870300292968	1.0321400146484374	0.0290625	-0.05195280075073242	1.017530029296875	0.06416159820556641	-0.11110199737548829	1.0040599975585938	0.055287498474121094	-0.09580370330810548	1.0161900024414063	0.04685129928588867	-0.08126860046386719	1.0258499755859376	0.03576580047607422	-0.056219898223876956	1.0393599853515625	-0.010346599578857422	-0.013820300102233887	1.083510009765625
22	0.7333333333333333	0.004611219882965088	-0.0997708969116211	1.0509100341796875	-0.020130800247192382	-0.10166600036621094	1.0521500244140625	-0.035216800689697264	-0.07916989898681641	1.0543499755859376	-0.02256760025024414	-0.04953350067138672	1.0635899658203125	-0.009924189567565918	-0.13462300109863282	0.9632750244140625	-0.0130068998336792	-0.11509300231933593	0.97285302734375	-0.01610540008544922	-0.0945988006591797	0.9861160278320312	-0.016263999938964845	-0.05806259918212891	1.00422998046875	-0.014255399703979493	-0.07575330352783204	1.0583499755859376	-0.006850959777832032	-0.08637650299072265	1.0452099609375	0.003727740049362182	-0.09264849853515625	1.0213699951171875	0.008405590057373047	-0.05256320190429688	1.0031199951171874	-0.002584909915924072	-0.07299289703369141	1.0705	0.006162919998168945	-0.08506400299072266	1.0548399658203125	0.021536699295043947	-0.09129080200195312	1.0318499755859376	0.02912739944458008	-0.05194919967651367	1.0170999755859376	0.06412860107421875	-0.11116500091552735	1.003780029296875	0.05525749969482422	-0.09586810302734375	1.0158699951171875	0.046839599609375	-0.08128810119628906	1.025449951171875	0.03582680130004883	-0.05623989868164062	1.0389100341796875	-0.010308600425720215	-0.013974599838256836	1.08318994140625
23	0.7666666666666667	0.004512740135192871	-0.1001510009765625	1.0502900390625	-0.020301399230957032	-0.10180899810791015	1.05172998046875	-0.03517290115356445	-0.07927490234375	1.0541700439453126	-0.022430700302124025	-0.04952560043334961	1.06325	-0.00978318977355957	-0.13519500732421874	0.964125	-0.012869799613952636	-0.1155790023803711	0.9733040161132812	-0.01603109931945801	-0.09492669677734375	0.9862550048828125	-0.016107099533081055	-0.058154098510742186	1.0040399780273437	-0.01455389976501465	-0.07572059631347657	1.05743994140625	-0.006798319816589356	-0.08643479919433594	1.0453599853515625	0.003793600082397461	-0.09268460083007812	1.0210499877929688	0.008463720321655273	-0.052606498718261716	1.0028900146484374	-0.0019307299852371212	-0.07319380187988281	1.0689200439453126	0.0064829401969909665	-0.08539900207519531	1.0544000244140626	0.02171719932556152	-0.09137529754638672	1.0315699462890624	0.02912899971008301	-0.05202510070800781	1.0171400146484375	0.06405439758300781	-0.11116600036621094	1.0035800170898437	0.05524039840698242	-0.0959114990234375	1.0156099853515625	0.046879600524902344	-0.08131320190429688	1.0253800048828126	0.035832000732421876	-0.056142398834228516	1.039	-0.010276000022888183	-0.01392389965057373	1.0829599609375
24	0.8	0.004329050064086914	-0.1006449966430664	1.049800048828125	-0.02044219970703125	-0.10187000274658203	1.051489990234375	-0.035487800598144534	-0.07919539642333985	1.054030029296875	-0.02239069938659668	-0.04948130035400391	1.0632099609375	-0.00953754997253418	-0.13566099548339844	0.9650679931640626	-0.012712599754333496	-0.11591000366210938	0.9738109741210937	-0.01596940040588379	-0.09503140258789063	0.986416015625	-0.016327499389648437	-0.0581057014465332	1.0036699829101563	-0.014422100067138672	-0.0758917007446289	1.05706005859375	-0.006821400165557862	-0.08641940307617188	1.0453900146484374	0.003863029956817627	-0.09272540283203125	1.0206300048828125	0.008412190437316894	-0.05254159927368164	1.0026099853515624	-0.00180317997932434	-0.07339459991455079	1.067969970703125	0.0067434201240539554	-0.08553559875488281	1.05456005859375	0.02177720069885254	-0.09126080322265626	1.0313800048828126	0.02908530044555664	-0.05192050170898437	1.0166400146484376	0.06400279998779297	-0.11112000274658203	1.0031199951171874	0.05522169876098633	-0.09577570343017579	1.0153300170898438	0.04686149978637695	-0.08121420288085937	1.02502001953125	0.035970001220703124	-0.055864799499511716	1.0386800537109375	-0.010276000022888183	-0.014055000305175782	1.0826300048828126
25	0.8333333333333334	0.003991590023040771	-0.1004739990234375	1.0496400146484375	-0.02084519958496094	-0.10178299713134766	1.0509000244140625	-0.03590660095214844	-0.07909619903564453	1.0534599609375	-0.02269219970703125	-0.049389801025390624	1.0626800537109375	-0.009668479919433594	-0.13581700134277344	0.9655800170898438	-0.012885899543762206	-0.11599199676513672	0.9739619750976563	-0.01620289993286133	-0.09479850006103516	0.9863469848632812	-0.016624500274658203	-0.057800098419189455	1.0033300170898438	-0.0147923002243042	-0.07567980194091797	1.0563800048828125	-0.006961649894714356	-0.0864209976196289	1.044530029296875	0.0033635599613189688	-0.09257900238037109	1.02002001953125	0.00821401023864746	-0.05223659896850586	1.0023599853515626	-0.002354710102081299	-0.0730458984375	1.0691500244140626	0.006320350170135498	-0.085408203125	1.0535400390625	0.021748300552368163	-0.0911886978149414	1.03075	0.028897300720214843	-0.05168389892578125	1.0163699951171874	0.06354399871826172	-0.1109020004272461	1.0025499877929687	0.05487269973754883	-0.09561309814453126	1.014719970703125	0.04661790084838867	-0.08104119873046875	1.0246099853515624	0.035722999572753905	-0.055698898315429686	1.038530029296875	-0.01039050006866455	-0.013899499893188477	1.082510009765625
